<svg xmlns="http://www.w3.org/2000/svg" viewBox="0 0 980.09 782.47"><defs><style>.cls-1{fill:#29166f}.cls-2{fill:#009241}</style></defs><g id="Layer_2" data-name="Layer 2"><g id="Layer_1-2" data-name="Layer 1"><path class="cls-1" d="M851.93,685.81a415.63,415.63,0,0,1-42.28,26.85c-51.81,28.81-107.19,47.54-165.29,58.64a623.11,623.11,0,0,1-139,10.79c-96.61-3.37-188.37-25.21-272.62-74C184.28,680,142.52,644.4,111.23,597.44a256.41,256.41,0,0,1-28.85-57.92c-1.29-3.7-1.21-5,3.35-4.95,48.78.16,97.58-.5,146.35.22,135,2,270,.34,404.95.85,69.09.25,138.19,0,207.29,0h6c.11,2.13-1.46,2.19-2.62,2.34a37.68,37.68,0,0,1-5,.11H248.33a23.17,23.17,0,0,0-2.5,0c-1.75.2-4.16-.89-5.12.75s1.14,3.27,2.16,4.65c4.72,6.44,9.85,12.59,14.34,19.18,2.81,4.12,6.21,5,10.93,5,50.94-.15,101.89-.09,152.84-.09H821.81c-.35,5.44-3.44,6.24-8,6.24q-269.48-.14-539,0c-2.09,0-4.26-.41-6.92.77,6.26,6.32,12.33,12.14,18,18.3,4.85,5.25,10.38,6.88,17.6,6.87q251.25-.33,502.49-.12c2,0,5.14-1.17,5.88,1s-.12,5.2-.48,7.82c-.18,1.28-1.46,1.11-2.42,1.14-1.66.06-3.33,0-5,0q-245,0-490,0c-1.88,0-4.75-1.09-5.45.8-.79,2.14,2.25,2.87,3.72,4,22.55,17.14,22.57,17.12,50.68,17.12q222.53,0,445.05-.1c4.55,0,6.42,1.09,7.79,5.7,5.5,18.6,16.43,33.63,31.86,45.38C849,683.56,850.31,684.56,851.93,685.81ZM190.68,619.25c2.88,1,6.51,0,8.51,3.28,8.08,13.07,22.58,21,28.67,35.7a3,3,0,0,0,3.62,2c1.39-.39-1.17-3.17,1.38-2.56,1.32.31,2.27,2,3.59,2.56s4,2.73,4.56.24c1.46-6.9,7.43-10.37,10.79-15.76,2.15-3.43,5.76-5.86,7.25-10.08-2.34-.16-4.33-.19-6.29-.47-1.36-.19-2.36-.06-2.58,1.47-.87,6-5.35,9.8-9,14.08-1.17,1.4-1.75,4.74-4.75,2.83-2.49-1.58-5.17-3.3-3.22-7.17a31,31,0,0,0,1.7-5.72c.8-2.82.18-4.4-3.2-4.49-5.64-.15-6.06.15-5.45,5.56a1.49,1.49,0,0,1-1,1.83c-1.62-2.77-7-3.28-5.35-8.09,1.42-4.13,4.41-7.85-2.61-9.85-3.16-.9-5.74-3.79-8.89-4.74-5.1-1.54-5.22-1.18-2.14-5.84a11.27,11.27,0,0,1,1.8-2.35c1.95-1.76.69-2.41-.93-3-4.19-1.59-7,.56-9.28,3.74-3.62-8.35,1.19-12.73,8.23-16.79-6.61-1.92-11.64-5.74-19.21-4.64,5-4.22,7.31-10.57,14.8-8.37,2,.58,3.8-1.2,3.68-2.51a27.09,27.09,0,0,0-2.48-8.3,3,3,0,0,0-3.56-1.1,2.21,2.21,0,0,0-1.37,1.92c-.33,1.95-1,2.31-3.34,2.62-3.07.4-5.55.4-8.23-1-3.45-1.81-6.19.86-8.71,2.24-2,1.07.2,3.6.64,5.4,2.27,9.27,6.71,17.65,11.33,25.88,2.17,3.88,3.13,7.54,1.21,11.68-1-.18-.83-.84-.64-1.51.72-2.47-1.19-2.67-2.74-3.16-1.23-.39-2.58-.26-2.92,1-.43,1.63-1.19,3.66.81,4.84.87.51,1.92.69,2,1.85.21,1.92.39,3.65,3.11,3.32,2.14-.26,2.63-1.84,3.1-3.41C194.41,619.74,191.67,620.29,190.68,619.25Zm621.85,26.94H365.22c9.41,6.11,19.4,10.5,29.37,14.95a28.75,28.75,0,0,0,12,2.49c115.21-.08,230.42-.37,345.62.25,18.08.1,34.48-2.86,50-11.75C805.42,650.29,809.12,649.26,812.53,646.19ZM459.43,681.8l0,1.46q129,32.36,258,0V681.8ZM288,688.26c-.74-.94-1-1.35-1.34-1.7-5.37-5.46-4.79-12.6,1.53-17.34,1.94-1.45,2.57-4.72,1.59-5-3.05-.86-4.71-4.08-7.89-4.2-2.56-.1-3.85,1.15-2.67,3.74.8,1.73.14,2.46-.83,4-1.75,2.87-3.92,4-6.83,4.73-3.73,1-3.9,4.84-5.09,7.47-.89,2,2.5,2.54,4.06,3.54,3.77,2.41,7.71,4.56,11.57,6.84a3.65,3.65,0,0,1,1.81,4.29c-.52,1.74-1.77-.52-3,.15-1.34.77-3.67.39-3.11,2.86.4,1.76.55,4.29,3.45,3.88,1.1-.15,1.88-.25,2.48.86.75,1.39,1.63,2.57,3.51,1.47a3.49,3.49,0,0,0,1.62-4.72c-2.2-5,1.81-3.53,3.63-3.29a4.86,4.86,0,0,1,4.3,4.3c.4,3.71,2.23,4,5.09,2.61,4.15-2,7.36.62,10.58,2.46,1.19.69,2.91,2.57.56,3.85-1.69.93-4.93-.14-4.85,2.91.08,3.23,2.32,4.67,5.65,4.07.2,0,.55.36.73.62.88,1.25,1.64,2.66,3.53,1.37a3.42,3.42,0,0,0,1.26-4.78c-2.24-4.4,1.15-4,3.43-3.78,2.95.34,5.34,1.88,5.57,5.61a10,10,0,0,0-1.8.16c-1.67.44-4.09.27-3.93,2.79.1,1.58,1.08,3.5,2.71,3.91,2.15.54,2.76-1.45,3.78-3,2.17-3.42,5.31-4.93,9.52-3.47q11,3.81,22.18,7.33c2.8.89,5.4,1.82,5.91,5.18.29,1.94,1.63,2.29,2.78,1.28,4.18-3.69,8.41-1.28,12.68-.48,3,.56,7.48,2.71,5-4-.39-1,.38-2.57.71-3.84q3.07-11.94,6.2-23.87c-3,1.53-8.44-.1-7.88,4.5a25.62,25.62,0,0,1-1.65,12.62c-1,2.75.53,7.8-4.1,7.85-5.51.05-4.14-5.06-4.36-8.38-.18-2.78-1.22-2.34-3.12-1.8-4.14,1.17-4.19,4.54-4.23,8-3.52-1.75-7.16-2.82-6.82-7.64.09-1.36-1.5-2-2.84-2.42a79.44,79.44,0,0,0-7.54-2.53c-3.22-.69-3.4-2.28-2.39-5,1.57-4.2,2.87-8.5,4.28-12.76.41-1.24,1.37-2.84.28-3.71-1.81-1.46-3.68.59-5.61.65-1.51,0-1.83,1.2-1.52,2.53,1.12,4.87-.86,9.2-2.55,13.5-.95,2.42-.75,7.22-3.41,6.66-3-.62-1.81-5.11-1.42-7.92.35-2.45-.57-2.46-2.38-2.1-5.41,1.07-5.66,5.08-5.24,8.68-6.14-2.62-8.13-7.57-5.55-14.2-7.47,1-7.87,1.48-8.63,8.75-7.18-5.58-1.89-13.22-3.44-20-4,1.25-7.91,2.46-11.84,3.76-1.62.54-3,1.42-3.34,3.32-.15.89.15,2.25-1.52,1.78a2.09,2.09,0,0,1-1.52-2.31,33.36,33.36,0,0,1,.68-6.41c.5-1.91,0-2.31-1.78-2.23C290.21,680.53,288.27,683.16,288,688.26Zm146.39,63.57c3.89,2.24,6.8,1.26,9.53-.5,3.06-2,6-4.12,9-6.29,1.25-.93,2.53-1.8,4.09-1.32,8.21,2.5,16.82.43,25.19,2.64,6.48,1.72,13.49,1.5,20.27,2,3.93.28,8.35.73,5.2-5.7-.38-.78.09-2,.15-2.95.4-6.81.87-13.6,1.12-20.41.05-1.32.93-4.26-1.38-3.62-2.14.59-6.71,1.33-5.29,5,2.46,6.34.79,12.47.6,18.7,0,1.32,0,2.82-1.95,2.81-1.77,0-2.93-1-2.89-2.72.07-3.32.35-6.63.57-9.94.34-5,.7-10,1.05-15-2.52,2.2-8.35.8-6.89,5.59,1.58,5.19,1.08,10.2.61,15.28-.58,6.24-1.94,7-8.3,5.74-.81-.16-1.76-.11-2.1-1s.41-1.51,1-2.05a45,45,0,0,0,5.21-4.6c1.21-1.44,2.34-3.72.25-5.15-2.6-1.76-13.55.23-15.86,2.52-1.77,1.75-5.07,3.66.43,4.94,1.08.25,1.54,1.71,1.65,2.88.07.71-.54,1.07-1.24,1.3a5.21,5.21,0,0,1-7-5.56,98.07,98.07,0,0,0,1.35-9.86c.14-4.31,2-8.57.66-13.86-2.26,3-7.84,1.63-6.23,7,1.87,6.22-.41,12.19-.62,18.28,0,1.28-.48,2.26-2,2.32s-2.29-.55-2.63-2.21c-.77-3.8-2.51-7.37-2.12-12.27-3.6,2.37-6.37,4.13-9.07,6-6.06,4.15-6.26,4.67-2.18,10.43,2.13,3,2.65,5-1.35,6.75C440.43,748.11,437.84,749.9,434.43,751.83Zm114.35-6.41c-2.87-2.71-5.75-.95-7.58-2.25-3.21-2.27-4.63-10.77-2.68-14.49,1.16-2.21.08-5.33-.84-5.16-3.1.56-6.15-1.72-9.06,0-2.57,1.53-2.48,3.18-.12,5,.67.52,2.7.28,1.68,2.23-1.55,3-1.24,6.64-4.5,9.07-2.79,2.09-1.22,5.76-.59,8.45.51,2.22,3.42,1.1,5.23,1.24,4.62.36,9.27.51,13.9.47,1.45,0,2.68-.22,3.25,1.35s-1.2,1.7-1.88,2.48c-1,1.2-3.17,2.25-1.66,4,1.22,1.43,2.88,3.6,5.36,1.61a1.86,1.86,0,0,1,2.24-.19c1.24.59,2.55,2,3.79-.08a3.83,3.83,0,0,0-.35-4.61c-.69-1-2.38-1.68-1.27-3.31.9-1.32,2.54-1.27,3.75-1.87,4.61-2.3,5.4,8.54,10.28,2.93,3.52-4.05,7.9-2.61,12-2.94,5.29-.42,10.6-.63,15.9-1,1.69-.11,3.72-.43,3.16-2.75-1.22-5-6.57-8.65-12-8.46a27,27,0,0,0-3,.08c-4.06.6-5.92-.46-5.84-5.2.1-5.45.69-11.1-1.38-16.82a36.11,36.11,0,0,1-4.65,3.61c-1.81,1-1.89,2-.93,3.6,3.54,5.76,2.41,12.24,2.78,18.48.05.74.33,1.76-.71,2.14s-1.9-.25-2.35-1.22c-1.15-2.47-2.25-5-3.41-7.51-5.38,2.57-6.18,6.47-3.4,11.15-5.85-2-10.89-4.52-10.63-11.68C547.3,736.63,546.64,738.07,548.78,745.42ZM768.2,675c-1.41,4.09-6,6.3-3.41,9.08,4.43,4.76,6,10.61,8.46,16.17.5,1.12,2.17,2.61.21,3.92a4.31,4.31,0,0,1-5.45.06A18,18,0,0,1,760.47,694c-2.83,6-6.4,10.21-6.83,15.84-.24,3.18-2,3-3.35,1.29-2.85-3.57-6-2.84-9.32-1.33-4.08,1.85-7.57,1.78-10.4-2.27-.7-1-2-3-3.45-1-1,1.44-3.34,3.24-.63,5.48,2.39,2,4.3,4.51,7.38,6a12.43,12.43,0,0,0-1.77.25c-1.43.44-3.75-1.46-4.21.91-.31,1.58.6,3.58,1.42,5.15,1.16,2.25,3,.58,4.37.17,6.52-1.92,13.06-3.83,19.46-6.11,8.75-3.11,17.44-6.4,26-10,2.15-.89,6.3-2.47,1.08-5.56-1.2-.72-1.72-2.74-2.35-4.25C774.83,691.26,771.84,683.91,768.2,675Zm-106.45,59c2.18,1.26-1.1,7,4.26,6.09,12.28-2,24.49-4.39,36.54-7.52,3-.77,5.46-1.78,1.37-4.8-1.44-1.06-2.31-2.85-3.67-4.05-2.25-2-3.92-9.22-7.68-1.11-.09.2-.46.32-.72.4-4.19,1.25-8.37,2.42-10.2,7.15-.6,1.58-2.33,2.44-3.43.72-2.67-4.2-8.48-7.23-5.4-13.76.8-1.69-.15-3.19-1.33-4.5-.78-.86-1.7-1.37-2.51-.41-1.43,1.7-2.66,1.51-4.66.76-1.56-.59-2.71,1.53-3.52,2.94a1.77,1.77,0,0,0,.81,2.54c5.26,3,3.93,6.87,1.45,10.93A7.12,7.12,0,0,0,661.75,734.08Zm-35.41-22.3c-2.38,2.47-8,2.9-5.76,7,3.17,5.74,2.64,11.9,3.82,17.85.24,1.23.89,3.13-1.42,3.58-1.92.38-2.55-.89-3.28-2.31-1.65-3.19-3.45-6.31-5.3-9.68-2.18,2.14-4.32,4.18-6.38,6.29a31.57,31.57,0,0,0-2.9,3.42c-1.4,1.94-1.62,3.78.22,5.79s5.81,3,4.84,6.15c-.75,2.41-3.62,4.17-5.6,6.17a26.48,26.48,0,0,1-2.33,1.87c-.48.39-1.35.71-.76,1.48a2.16,2.16,0,0,0,1.6.84,10,10,0,0,0,7.31-3.77c4.64-6.29,9.68-11.75,18.47-11.11a2.66,2.66,0,0,0,1.36-.56c1.21-.76,2.34-1.74.82-3.09-2.16-1.92-1.83-4.49-2.11-6.91C628.05,727.1,627.21,719.44,626.34,711.78ZM433,720.08a56.18,56.18,0,0,0-12.56,7.81c-1.76,1.42-1.74,3.46-.94,5.5,1.33,3.36,2,6.67-1.56,9.59,3.29,1.19,6.18.89,7.82-1.19,2.13-2.7,4.3-2.57,7-1.74,3.44,1.07,4.08-.31,3.24-3.47C434.59,731.36,432.23,726.31,433,720.08Zm276.57,22.28a4.93,4.93,0,0,0,6.22-1.26c4.86-5.25,8.91-11.28,10.74-18.11,1.3-4.85-4.55-7.24-6.35-11.19-1.32-2.92-2.38-1.41-3.44-.15-3,3.55-1.93,6.87,1.17,9.56s2.9,5,.86,8.13C715.91,733.69,713.52,738.35,709.57,742.36Zm-69.34,1.36c2-.12,2.71-.1,3.37-.21,1.43-.24,3.46-.13,3.67-1.86s-1.87-1.36-3-1.73a5.88,5.88,0,0,1-4.47-5.33c-.77-6.09-1.66-12.17-2.63-18.24-.3-1.87.64-4.81-1.26-5.37-2.07-.62-3.06,2.53-4.87,3.62s-.76,2.58.08,3.76a16.3,16.3,0,0,1,2.76,8.39c.34,4,1.12,7.88,1.65,11.83C636,742.16,637.92,743.94,640.23,743.72ZM261.82,640.25c-1.37.36-3.59-1.52-4,1.25-1.14,7.34-6.71,12-10.43,17.8-3.24,5-2.34,8.75,3,11.17.89.4,1.9,1.09,2.77.33s.21-1.82-.41-2.58c-2.65-3.2-1.61-6.05.6-9,3.59-4.76,7.07-9.62,10.56-14.47.84-1.18,2.55-2.31,1.95-3.79C265.13,639.25,263.18,640.64,261.82,640.25ZM404,699.94l-1.08-1.13c-1.7,2.68-7.19.94-6.65,4.39,1.24,7.82-2,14.6-3.17,21.84-.82,5,1.3,7.57,6.79,8.18,1.11.12,2.48.55,3-.92.4-1.17-.72-1.77-1.54-2.21-3.52-1.89-3.48-4.78-2.64-8.12C400.53,714.65,402.24,707.29,404,699.94Zm373.65-27.81c-5,6.19-5,6.16-.54,11.62a18,18,0,0,1,2.2,3.85c1.8,3.91,3.52,7.85,5.29,11.77,1,2.28,2.63,4.15,5.28,3.71s6.06-.52,7.2-5c-7.52,2.08-9.36-3-11.47-8.12C783.16,684,780.39,678.22,777.65,672.13ZM311.22,682.28c2.08-.92,3.69-1.66,3.46-4-.19-2-6.24-6.09-8.46-5.63-2.94.62-3.84,2-2.17,4.9S310.52,678.23,311.22,682.28Zm70,25.63c-.63-1.29-.26-4.07-3.48-2.87-1.27.47-2.08.08-2.92-1-1.38-1.85-2.94-.62-4.38.14-1,.51-1.64,1.32-1.08,2.41.81,1.55,1.51,3.75,3.62,3.46,1.62-.22,2.76-.49,3.89,1a1.91,1.91,0,0,0,3,.27A3.41,3.41,0,0,0,381.25,707.91Zm183.12,26.36c2,.25,2.3-1.29,2.49-2.49.34-2.2-.67-4.17-2.84-4.42-1.6-.19-3.13,1.43-3.39,3.09C560.22,733.14,563,733.12,564.37,734.27Z"/><path class="cls-2" d="M151.64,507.35c-29.79,0-59.58-.05-89.38.08-3.47,0-5.21-.81-6.37-4.4Q28.42,417.94.61,332.94c-1.22-3.72-.74-5.77,2.64-8.21q72.6-52.46,144.9-105.29c2.84-2.07,4.55-1.79,7.25.18Q228,272.52,300.75,325.15c2.8,2,3.38,3.69,2.31,7q-28,85.49-55.63,171.05c-1.06,3.27-2.48,4.3-5.92,4.28C211.55,507.29,181.6,507.35,151.64,507.35Z"/><path class="cls-2" d="M326.88,71.06c18.81,0,37.62.12,56.42-.12,3.3,0,4.6.87,5.5,3.9,9.66,32.32,20.16,64.37,31,96.32,1.38,4.08,2.54,8.27,4.26,12.22,1.39,3.17.32,4.72-2.24,6.51q-46.69,32.51-92.08,66.82c-2.85,2.15-4.48,2-7.23-.08Q277,222.43,230.41,189.8c-2.27-1.59-3.37-2.86-2.27-6q18.66-53.67,35.16-108C264.44,72,266.15,70.94,270,71c19,.2,37.95.09,56.93.09Z"/><path class="cls-1" d="M901.78,686.38c-41.59,0-76-34-76-75.38s35-76.64,76-76.18c41.73.47,75.64,34.49,75.64,75.89A76,76,0,0,1,901.78,686.38Z"/><path class="cls-2" d="M536.22,153.23c-14.82,0-29.64-.18-44.44.11-4.33.09-6-1.37-7.17-5.39-8.7-28.76-18.08-57.31-27.89-85.71-1.12-3.23-.72-4.88,2.14-6.87q37.69-26.22,74.31-53.93c2.59-1.95,4.31-1.91,6.88.05,24.37,18.52,49.2,36.42,74.29,54,2.64,1.85,3.33,3.35,2.24,6.45q-15,43-28.2,86.67c-1.12,3.74-2.92,4.81-6.72,4.75C566.51,153.1,551.36,153.23,536.22,153.23Z"/><path class="cls-2" d="M717.59,86.31c11.48,0,22.95.1,34.42-.07,3.1,0,4.62.69,5.64,3.9,7.07,22.3,14.37,44.54,21.71,66.76.85,2.57.61,4.11-1.76,5.81q-28.76,20.64-57.28,41.58c-2.57,1.89-4.18,1.44-6.47-.24q-28.15-20.61-56.5-41c-2.59-1.85-3.27-3.3-2.24-6.41,7.24-21.73,14.38-43.5,21.24-65.35,1.29-4.12,3.22-5.21,7.32-5.11C695,86.5,706.28,86.31,717.59,86.31Z"/><path class="cls-1" d="M434.79,415c-3.89,11.79-7.71,23.61-11.68,35.38-1.69,5-1.64,11.92-5.67,14.45-3.73,2.35-10,.69-15.13.75-3.15,0-6.31,0-10.19,0,2-6.27,4-12.17,5.89-18.06,7.7-23.55,15.47-47.07,23.05-70.66,1-3,2.19-4.31,5.5-4.15a172.54,172.54,0,0,0,17.47,0c3.56-.18,5.2,1,6.35,4.41,4.7,14,9.68,28,14.68,41.89.5,1.4.28,3.93,2.46,3.77,1.59-.12,1.53-2.38,2-3.74,4.65-14,9.31-28.09,13.78-42.19,1-3,2.25-4.27,5.57-4.14,7.09.27,14.21.08,21.91.08-3.7,11.33-7.21,22.05-10.71,32.76-6.09,18.65-12.23,37.28-18.22,56-.93,2.9-2.08,4.34-5.46,4.16-6.14-.32-12.31-.27-18.46,0-3.07.13-4.29-1-5.25-3.82-4.76-14-9.75-27.94-14.67-41.89-.59-1.69-1.27-3.34-1.91-5Z"/><path class="cls-1" d="M697.41,465.58c7.15-21.86,14-42.85,20.89-63.84,2.74-8.38,5.64-16.7,8.2-25.13.86-2.82,2-4,5.15-3.9,7.8.24,15.62.07,24,.07-3.11,9.53-5.94,18.7-9.14,27.73-1.41,4-.73,5.33,3.67,5.18,7.82-.27,15.65-.2,23.46,0,3,.07,4.43-1,5.32-3.88,2.57-8.43,5.55-16.73,8.14-25.15.86-2.77,2-4,5.18-3.94,7.79.26,15.59.09,24,.09-1.66,5.1-3.12,9.66-4.61,14.22-8.07,24.64-16.23,49.26-24.14,74-1.17,3.67-2.84,4.95-6.65,4.7-5.47-.35-11-.09-16.47-.09-6.42,0-6.41,0-4.32-6.32,3-9,5.81-18,8.91-27,1.17-3.37.86-4.79-3.19-4.68-8.15.24-16.31.19-24.46,0-2.88-.06-4,1-4.84,3.7-3.16,10.16-6.72,20.19-9.83,30.36-1,3.11-2.42,4.1-5.61,4C713.41,465.42,705.76,465.58,697.41,465.58Z"/><path class="cls-2" d="M807.13,296.83c-8.15,0-16.31-.12-24.46.06-2.84.06-4.06-.95-4.9-3.61-4.91-15.52-9.89-31-15.11-46.43-1-2.86-.16-4.22,2-5.75q20-14.43,40-29c2-1.43,3.33-1.36,5.25.06Q830,226.9,850.23,241.45c2,1.41,2.33,2.73,1.57,5q-7.81,23.66-15.32,47.42c-.87,2.78-2.57,3-4.88,3C823.45,296.8,815.29,296.83,807.13,296.83Z"/><path class="cls-1" d="M404.14,372.79c-2,6-3.8,11.16-5.29,16.42-.77,2.71-2.6,2.51-4.61,2.5-13.31,0-26.62.14-39.93-.09-3.75-.07-5.55.93-6.72,4.68-3.57,11.48-3.75,11.42,8.24,11.42h33.31c-1.83,5.61-3.59,10.61-5.07,15.69-.81,2.77-2.84,2.32-4.77,2.32-12.32,0-24.63.1-36.94-.05-3.13,0-4.88.76-5.68,4a88.28,88.28,0,0,1-3.82,11.84c-1.35,3.4,0,4,3,4,13.81-.08,27.62.05,41.43-.09,3.36,0,4.52.66,3.16,4.13-2,5.09-2.3,11.78-5.85,15s-10.15.9-15.42.93c-20.46.11-40.91,0-62.06,0,3.42-10.41,6.71-20.44,10-30.47q9.56-29.14,19.08-58.28c.66-2,.8-4.11,3.94-4.1C354.6,372.84,379,372.79,404.14,372.79Z"/><path class="cls-1" d="M540.17,466.93c-8.91,0-15.39-.34-21.64-2.33-10.71-3.4-17.12-16.62-13.3-27.08.67-1.84,1.94-2,3.46-2.16q10.7-.78,21.38-1.53c1.58-.11,2.71-.15,2.7,2.23,0,11.23,6,15.78,17,13.12a17.27,17.27,0,0,0,7.49-3.77c7.15-6.25,6-12.94-2.9-16.09-6.26-2.2-12.73-3.79-19-5.9A25.33,25.33,0,0,1,524,416.33c-5.32-6.05-4.8-12.85-1.91-19.63,6.55-15.36,19.4-22.18,35-24.72,9.39-1.54,18.9-1.57,28.21.94,10.85,2.92,16.22,11.88,13.88,22.41-.5,2.27-1.52,3.08-3.58,3.2l-20.41,1.12c-1.76.09-3,.08-3.26-2.43-.8-7.8-3-9.51-10.84-9.58-4.21,0-7.93,1.05-10.83,4.14-3.83,4.07-2.94,8.24,2.36,10,5.67,1.87,11.53,3.13,17.26,4.83a67.81,67.81,0,0,1,9.34,3.45c10.73,5,14.5,13.34,10.64,24.63-6,17.52-19.15,26.93-36.69,30.94A63.21,63.21,0,0,1,540.17,466.93Z"/><path class="cls-1" d="M586.31,465.58l48-68.36c5.07-7.22,10.22-14.38,15.16-21.68a5.58,5.58,0,0,1,5.3-2.8c8,.13,16,.17,24,0,3.14-.08,3.84,1.13,4,4.06,1.21,27.41,2.56,54.82,3.9,82.22.32,6.57.37,6.57-6,6.57s-13-.1-19.47.05c-2.62.06-3.73-.81-3.37-3.42a6.68,6.68,0,0,0,0-1C657.68,450,657.68,450,646.61,450c-6.16,0-12.32.13-18.48-.06-2.86-.08-4.91.76-5.92,3.44-4,10.53-11.55,14.19-22.51,12.29C595.71,465,591.5,465.58,586.31,465.58Zm72.21-67.42-.85-.58c-6.48,10.28-13,20.52-19.38,30.87-1.41,2.3.7,2.28,2.18,2.29,4.8,0,9.61-.09,14.41.05,2.52.07,3.66-.85,3.65-3.4C658.5,417.65,658.52,407.9,658.52,398.16Z"/><path class="cls-1" d="M974.82,420.29c10,34.74,5.27,94.3-9.93,126.47a98.28,98.28,0,0,0-20.38-15c-2.89-1.56-.75-3,0-4.34a223.73,223.73,0,0,0,25.32-64.15A194.47,194.47,0,0,0,974.82,420.29Z"/></g></g></svg>